
<global>
amp_veltrack=0
ampeg_release=0.5
</global>

<group>
group_label=PP
xf_cccurve=gain
xfin_hicc1=42
xfout_hicc1=85
xfout_locc1=42

<region>
hikey=g#5
hivel=127
lokey=g5
loop_end=192773
loop_mode=loop_continuous
loop_start=61906
loop_xfade=15857
lovel=1
pitch_keycenter=g#5
sample=4Trumpets_trill_half_PP_G#5.opus
</region>

<region>
hikey=g#4
hivel=127
lokey=g4
loop_end=186009
loop_mode=loop_continuous
loop_start=59734
loop_xfade=15301
lovel=1
pitch_keycenter=g#4
sample=4Trumpets_trill_half_PP_G#4.opus
</region>

<region>
hikey=g#3
hivel=127
lokey=g3
loop_end=184949
loop_mode=loop_continuous
loop_start=59394
loop_xfade=15213
lovel=1
pitch_keycenter=g#3
sample=4Trumpets_trill_half_PP_G#3.opus
</region>

<region>
hikey=f#5
hivel=127
lokey=f5
loop_end=186724
loop_mode=loop_continuous
loop_start=59964
loop_xfade=15359
lovel=1
pitch_keycenter=f#5
sample=4Trumpets_trill_half_PP_F#5.opus
</region>

<region>
hikey=f#4
hivel=127
lokey=f4
loop_end=184545
loop_mode=loop_continuous
loop_start=59264
loop_xfade=15180
lovel=1
pitch_keycenter=f#4
sample=4Trumpets_trill_half_PP_F#4.opus
</region>

<region>
hivel=127
key=f#3
loop_end=190662
loop_mode=loop_continuous
loop_start=61228
loop_xfade=15683
lovel=1
sample=4Trumpets_trill_half_PP_F#3.opus
</region>

<region>
hikey=e5
hivel=127
lokey=d#5
loop_end=190773
loop_mode=loop_continuous
loop_start=61264
loop_xfade=15692
lovel=1
pitch_keycenter=e5
sample=4Trumpets_trill_half_PP_E5.opus
</region>

<region>
hikey=e4
hivel=127
lokey=d#4
loop_end=188691
loop_mode=loop_continuous
loop_start=60596
loop_xfade=15521
lovel=1
pitch_keycenter=e4
sample=4Trumpets_trill_half_PP_E4.opus
</region>

<region>
hikey=d5
hivel=127
lokey=c#5
loop_end=186041
loop_mode=loop_continuous
loop_start=59744
loop_xfade=15303
lovel=1
pitch_keycenter=d5
sample=4Trumpets_trill_half_PP_D5.opus
</region>

<region>
hikey=d4
hivel=127
lokey=c#4
loop_end=186489
loop_mode=loop_continuous
loop_start=59888
loop_xfade=15340
lovel=1
pitch_keycenter=d4
sample=4Trumpets_trill_half_PP_D4.opus
</region>

<region>
hikey=c6
hivel=127
lokey=b5
loop_end=183306
loop_mode=loop_continuous
loop_start=58866
loop_xfade=15078
lovel=1
pitch_keycenter=C6
sample=4Trumpets_trill_half_PP_C6.opus
</region>

<region>
hikey=c5
hivel=127
lokey=b4
loop_end=188933
loop_mode=loop_continuous
loop_start=60673
loop_xfade=15541
lovel=1
pitch_keycenter=c5
sample=4Trumpets_trill_half_PP_C5.opus
</region>

<region>
hikey=c4
hivel=127
lokey=b3
loop_end=186013
loop_mode=loop_continuous
loop_start=59735
loop_xfade=15301
lovel=1
pitch_keycenter=c4
sample=4Trumpets_trill_half_PP_C4.opus
</region>

<region>
hikey=a#5
hivel=127
lokey=a5
loop_end=186330
loop_mode=loop_continuous
loop_start=59837
loop_xfade=15327
lovel=1
pitch_keycenter=a#5
sample=4Trumpets_trill_half_PP_A#5.opus
</region>

<region>
hikey=a#4
hivel=127
lokey=a4
loop_end=185883
loop_mode=loop_continuous
loop_start=59694
loop_xfade=15290
lovel=1
pitch_keycenter=a#4
sample=4Trumpets_trill_half_PP_A#4.opus
</region>

<region>
hikey=a#3
hivel=127
lokey=a3
loop_end=184927
loop_mode=loop_continuous
loop_start=59387
loop_xfade=15212
lovel=1
pitch_keycenter=a#3
sample=4Trumpets_trill_half_PP_A#3.opus
</region>
</group>

<group>
group_label=MF
xf_cccurve=gain
xfin_hicc1=85
xfin_locc1=42
xfout_hicc1=127
xfout_locc1=85

<region>
hikey=g#5
hivel=127
lokey=g5
loop_end=189568
loop_mode=loop_continuous
loop_start=60877
loop_xfade=15593
lovel=1
pitch_keycenter=g#5
sample=4Trumpets_trill_half_MF_G#5.opus
</region>

<region>
hikey=g#4
hivel=127
lokey=g4
loop_end=188330
loop_mode=loop_continuous
loop_start=60479
loop_xfade=15492
lovel=1
pitch_keycenter=g#4
sample=4Trumpets_trill_half_MF_G#4.opus
</region>

<region>
hikey=g#3
hivel=127
lokey=g3
loop_end=186148
loop_mode=loop_continuous
loop_start=59779
loop_xfade=15312
lovel=1
pitch_keycenter=g#3
sample=4Trumpets_trill_half_MF_G#3.opus
</region>

<region>
hikey=f#5
hivel=127
lokey=f5
loop_end=188831
loop_mode=loop_continuous
loop_start=60640
loop_xfade=15533
lovel=1
pitch_keycenter=f#5
sample=4Trumpets_trill_half_MF_F#5.opus
</region>

<region>
hikey=f#4
hivel=127
lokey=f4
loop_end=183982
loop_mode=loop_continuous
loop_start=59083
loop_xfade=15134
lovel=1
pitch_keycenter=f#4
sample=4Trumpets_trill_half_MF_F#4.opus
</region>

<region>
hivel=127
key=f#3
loop_end=188823
loop_mode=loop_continuous
loop_start=60638
loop_xfade=15532
lovel=1
sample=4Trumpets_trill_half_MF_F#3.opus
</region>

<region>
hikey=e5
hivel=127
lokey=d#5
loop_end=190362
loop_mode=loop_continuous
loop_start=61132
loop_xfade=15659
lovel=1
pitch_keycenter=e5
sample=4Trumpets_trill_half_MF_E5.opus
</region>

<region>
hikey=e4
hivel=127
lokey=d#4
loop_end=195157
loop_mode=loop_continuous
loop_start=62672
loop_xfade=16053
lovel=1
pitch_keycenter=e4
sample=4Trumpets_trill_half_MF_E4.opus
</region>

<region>
hikey=d5
hivel=127
lokey=c#5
loop_end=194414
loop_mode=loop_continuous
loop_start=62433
loop_xfade=15992
lovel=1
pitch_keycenter=d5
sample=4Trumpets_trill_half_MF_D5.opus
</region>

<region>
hikey=d4
hivel=127
lokey=c#4
loop_end=187812
loop_mode=loop_continuous
loop_start=60313
loop_xfade=15449
lovel=1
pitch_keycenter=d4
sample=4Trumpets_trill_half_MF_D4.opus
</region>

<region>
hikey=c6
hivel=127
lokey=b5
loop_end=188232
loop_mode=loop_continuous
loop_start=60448
loop_xfade=15483
lovel=1
pitch_keycenter=C6
sample=4Trumpets_trill_half_MF_C6.opus
</region>

<region>
hikey=c5
hivel=127
lokey=b4
loop_end=187492
loop_mode=loop_continuous
loop_start=60210
loop_xfade=15423
lovel=1
pitch_keycenter=c5
sample=4Trumpets_trill_half_MF_C5.opus
</region>

<region>
hikey=c4
hivel=127
lokey=b3
loop_end=189959
loop_mode=loop_continuous
loop_start=61003
loop_xfade=15625
lovel=1
pitch_keycenter=c4
sample=4Trumpets_trill_half_MF_C4.opus
</region>

<region>
hikey=a#5
hivel=127
lokey=a5
loop_end=185862
loop_mode=loop_continuous
loop_start=59687
loop_xfade=15288
lovel=1
pitch_keycenter=a#5
sample=4Trumpets_trill_half_MF_A#5.opus
</region>

<region>
hikey=a#4
hivel=127
lokey=a4
loop_end=196216
loop_mode=loop_continuous
loop_start=63012
loop_xfade=16140
lovel=1
pitch_keycenter=a#4
sample=4Trumpets_trill_half_MF_A#4.opus
</region>

<region>
hikey=a#3
hivel=127
lokey=a3
loop_end=190345
loop_mode=loop_continuous
loop_start=61127
loop_xfade=15657
lovel=1
pitch_keycenter=a#3
sample=4Trumpets_trill_half_MF_A#3.opus
</region>
</group>

<group>
group_label=FF
xf_cccurve=gain
xfin_hicc1=127
xfin_locc1=85
xfout_hicc1=127
xfout_locc1=127

<region>
hikey=g#5
hivel=127
lokey=g5
loop_end=188917
loop_mode=loop_continuous
loop_start=60668
loop_xfade=15540
lovel=1
pitch_keycenter=g#5
sample=4Trumpets_trill_half_FF_G#5.opus
</region>

<region>
hikey=g#4
hivel=127
lokey=g4
loop_end=180557
loop_mode=loop_continuous
loop_start=57983
loop_xfade=14852
lovel=1
pitch_keycenter=g#4
sample=4Trumpets_trill_half_FF_G#4.opus
</region>

<region>
hikey=g#3
hivel=127
lokey=g3
loop_end=181199
loop_mode=loop_continuous
loop_start=58189
loop_xfade=14905
lovel=1
pitch_keycenter=g#3
sample=4Trumpets_trill_half_FF_G#3.opus
</region>

<region>
hikey=f#5
hivel=127
lokey=f5
loop_end=189125
loop_mode=loop_continuous
loop_start=60735
loop_xfade=15557
lovel=1
pitch_keycenter=f#5
sample=4Trumpets_trill_half_FF_F#5.opus
</region>

<region>
hikey=f#4
hivel=127
lokey=f4
loop_end=182631
loop_mode=loop_continuous
loop_start=58649
loop_xfade=15023
lovel=1
pitch_keycenter=f#4
sample=4Trumpets_trill_half_FF_F#4.opus
</region>

<region>
hivel=127
key=f#3
loop_end=179048
loop_mode=loop_continuous
loop_start=57499
loop_xfade=14728
lovel=1
sample=4Trumpets_trill_half_FF_F#3.opus
</region>

<region>
hikey=e5
hivel=127
lokey=d#5
loop_end=188411
loop_mode=loop_continuous
loop_start=60505
loop_xfade=15498
lovel=1
pitch_keycenter=e5
sample=4Trumpets_trill_half_FF_E5.opus
</region>

<region>
hikey=e4
hivel=127
lokey=d#4
loop_end=187455
loop_mode=loop_continuous
loop_start=60199
loop_xfade=15419
lovel=1
pitch_keycenter=e4
sample=4Trumpets_trill_half_FF_E4.opus
</region>

<region>
hikey=d5
hivel=127
lokey=c#5
loop_end=181882
loop_mode=loop_continuous
loop_start=58409
loop_xfade=14961
lovel=1
pitch_keycenter=d5
sample=4Trumpets_trill_half_FF_D5.opus
</region>

<region>
hikey=d4
hivel=127
lokey=c#4
loop_end=177951
loop_mode=loop_continuous
loop_start=57146
loop_xfade=14638
lovel=1
pitch_keycenter=d4
sample=4Trumpets_trill_half_FF_D4.opus
</region>

<region>
hikey=c6
hivel=127
lokey=b5
loop_end=181092
loop_mode=loop_continuous
loop_start=58155
loop_xfade=14896
lovel=1
pitch_keycenter=C6
sample=4Trumpets_trill_half_FF_C6.opus
</region>

<region>
hikey=c5
hivel=127
lokey=b4
loop_end=180125
loop_mode=loop_continuous
loop_start=57845
loop_xfade=14817
lovel=1
pitch_keycenter=c5
sample=4Trumpets_trill_half_FF_C5.opus
</region>

<region>
hikey=c4
hivel=127
lokey=b3
loop_end=184147
loop_mode=loop_continuous
loop_start=59136
loop_xfade=15147
lovel=1
pitch_keycenter=c4
sample=4Trumpets_trill_half_FF_C4.opus
</region>

<region>
hikey=a#5
hivel=127
lokey=a5
loop_end=186375
loop_mode=loop_continuous
loop_start=59852
loop_xfade=15331
lovel=1
pitch_keycenter=a#5
sample=4Trumpets_trill_half_FF_A#5.opus
</region>

<region>
hikey=a#4
hivel=127
lokey=a4
loop_end=181231
loop_mode=loop_continuous
loop_start=58200
loop_xfade=14908
lovel=1
pitch_keycenter=a#4
sample=4Trumpets_trill_half_FF_A#4.opus
</region>

<region>
hikey=a#3
hivel=127
lokey=a3
loop_end=185125
loop_mode=loop_continuous
loop_start=59450
loop_xfade=15228
lovel=1
pitch_keycenter=a#3
sample=4Trumpets_trill_half_FF_A#3.opus
</region>
</group>